<svg width="36" height="36" viewBox="0 0 36 36" fill="none" xmlns="http://www.w3.org/2000/svg">
<path fill-rule="evenodd" clip-rule="evenodd" d="M31.2715 2.81802C29.5142 1.06066 26.6649 1.06066 24.9076 2.81802L3.67116 24.0544C3.04296 24.6826 2.61476 25.4827 2.44053 26.3539L1.55993 30.7569C1.14009 32.856 2.99086 34.7068 5.09002 34.287L9.49302 33.4064C10.3642 33.2321 11.1643 32.8039 11.7925 32.1757L33.0289 10.9393C34.7862 9.18198 34.7862 6.33274 33.0289 4.57538L31.2715 2.81802ZM27.0289 4.93934C27.6147 4.35355 28.5644 4.35355 29.1502 4.93934L30.9076 6.6967C31.4933 7.28249 31.4933 8.23223 30.9076 8.81802L26.9002 12.8254L23.0215 8.94672L27.0289 4.93934ZM20.9002 11.068L5.79248 26.1757C5.58308 26.3851 5.44035 26.6518 5.38227 26.9422L4.50167 31.3452L8.90467 30.4646C9.19506 30.4065 9.46176 30.2638 9.67116 30.0544L24.7789 14.9467L20.9002 11.068Z" fill="#0F0F0F"/>
</svg>
