<svg width="29" height="29" viewBox="0 0 29 29" fill="none" xmlns="http://www.w3.org/2000/svg">
<g clip-path="url(#clip0_21_376)">
<path d="M15.4062 4.87019C16.5916 3.62137 18.6361 3.26431 21.0468 3.50719C23.2834 3.73194 25.5834 4.45512 27.1875 5.12575V23.1112C25.5236 22.4768 23.3686 21.8569 21.2298 21.6431C19.2469 21.4419 17.1009 21.5724 15.4062 22.5348V4.87019ZM14.5 3.23169C12.7147 1.6965 10.1264 1.46812 7.77019 1.70375C5.02606 1.98106 2.25656 2.92175 0.531063 3.70656C0.372739 3.77857 0.23848 3.89461 0.144313 4.04084C0.0501459 4.18708 4.81607e-05 4.35732 0 4.53125L0 24.4688C4.19811e-05 24.6204 0.0381298 24.7696 0.110775 24.9027C0.18342 25.0358 0.288299 25.1485 0.415807 25.2306C0.543315 25.3126 0.689375 25.3614 0.840607 25.3724C0.99184 25.3834 1.14341 25.3562 1.28144 25.2934C2.88006 24.5684 5.45563 23.6966 7.95144 23.4447C10.5052 23.1873 12.6458 23.6024 13.7931 25.0343C13.878 25.1401 13.9856 25.2255 14.108 25.2842C14.2303 25.3429 14.3643 25.3734 14.5 25.3734C14.6357 25.3734 14.7697 25.3429 14.892 25.2842C15.0144 25.2255 15.122 25.1401 15.2069 25.0343C16.3542 23.6024 18.4948 23.1873 21.0468 23.4447C23.5444 23.6966 26.1217 24.5684 27.7186 25.2934C27.8566 25.3562 28.0082 25.3834 28.1594 25.3724C28.3106 25.3614 28.4567 25.3126 28.5842 25.2306C28.7117 25.1485 28.8166 25.0358 28.8892 24.9027C28.9619 24.7696 29 24.6204 29 24.4688V4.53125C29 4.35732 28.9499 4.18708 28.8557 4.04084C28.7615 3.89461 28.6273 3.77857 28.4689 3.70656C26.7434 2.92175 23.9739 1.98106 21.2298 1.70375C18.8736 1.46631 16.2853 1.6965 14.5 3.23169Z" fill="#5BC0DE"/>
</g>
<defs>
<clipPath id="clip0_21_376">
<rect width="29" height="29" fill="white"/>
</clipPath>
</defs>
</svg>
